<?xml version="1.0" standalone="no"?>
<!DOCTYPE svg PUBLIC "-//W3C//DTD SVG 20010904//EN"
 "http://www.w3.org/TR/2001/REC-SVG-20010904/DTD/svg10.dtd">
<svg version="1.0" xmlns="http://www.w3.org/2000/svg"
 width="212.000000pt" height="212.000000pt" viewBox="0 0 212.000000 212.000000"
 preserveAspectRatio="xMidYMid meet">
<metadata>
Created by potrace 1.14, written by Peter Selinger 2001-2017
</metadata>
<g transform="translate(0.000000,212.000000) scale(0.100000,-0.100000)"
fill="#000000" stroke="none">
<path d="M848 2115 c-2 -1 -41 -5 -88 -9 -205 -16 -303 -44 -422 -123 -95 -62
-171 -150 -223 -258 -72 -146 -90 -278 -90 -650 0 -366 20 -532 79 -660 69
-149 165 -249 311 -321 147 -72 322 -94 720 -89 368 4 482 22 630 98 156 81
274 229 327 412 23 78 23 89 23 545 0 511 -1 517 -65 655 -64 138 -192 265
-321 319 -24 10 -51 22 -60 26 -19 10 -109 29 -169 36 -25 2 -61 7 -80 10 -36
5 -567 14 -572 9z m8 -224 c317 -66 660 -314 871 -631 75 -112 170 -311 158
-330 -3 -5 -1 -10 4 -12 5 -1 12 -16 14 -33 3 -16 10 -54 16 -84 26 -129 5
-287 -52 -383 -134 -229 -455 -272 -807 -107 -329 154 -630 473 -760 805 -201
514 60 877 556 775z"/>
</g>
</svg>
